<svg xmlns="http://www.w3.org/2000/svg" viewBox="0 0 64 64" fill="none">
  <defs>
    <linearGradient id="g" x1="8" y1="8" x2="56" y2="56" gradientUnits="userSpaceOnUse">
      <stop stop-color="#ff9ec1"/>
      <stop offset="0.55" stop-color="#ff6b9d"/>
      <stop offset="1" stop-color="#d4af37"/>
    </linearGradient>
  </defs>
  <rect x="4" y="4" width="56" height="56" rx="16" fill="#0b0d18"/>
  <path d="M32 47.5c-.8 0-1.6-.3-2.2-.8-6.2-5.4-10.2-8.9-13-11.6-3.7-3.6-5.6-6.7-5.6-10.8 0-6.2 4.8-10.8 10.7-10.8 4 0 7 1.7 10.1 5.4 3.1-3.7 6.1-5.4 10.1-5.4 5.9 0 10.7 4.6 10.7 10.8 0 4.1-1.9 7.2-5.6 10.8-2.8 2.7-6.8 6.2-13 11.6-.6.5-1.4.8-2.2.8z" fill="url(#g)"/>
</svg>
